# xmcd CD database file
#
# Track frame offsets:
#	150
#	12491
#	23450
#	35898
#	48690
#	60112
#	71865
#	83666
#	96355
#	108723
#	120191
#	133453
#	145998
#	155255
#	168868
#	180294
#	189954
#	201414
#	214955
#	226459
#
# Disc length: 3191 seconds
#
# Revision: 0
# Processed by: cddbd v1.5.2PL0 Copyright (c) Steve Scherf et al.
# Submitted via: CDex 1.70beta2
#
DISCID=190c7514
DTITLE=CNO - Country Number Ones - D1
DYEAR=1900
DGENRE=Country
TTITLE0=Your Cheatin' Heart - Hank Williams
TTITLE1=Singing The Blues - Marty Robbins
TTITLE2=I Walk The Line - Johnny Cash
TTITLE3=I'm Moving On - Hank Snow
TTITLE4=A Dear John Letter - Jean Sheppard and Ferlin Hunkey
TTITLE5=I Really Don't Want To Know - Eddy Arnold
TTITLE6=Sixtreen Tons - Tennessee Ernie Ford
TTITLE7=A Satisified Mind - Porter Wagoner
TTITLE8=The Wild Side of Life - Hank Snow
TTITLE9=It Wasn't God Who Made Honky Tonk Angles - Kitty Wells
TTITLE10=Hey Good Lookin' - Hank Williams
TTITLE11=I Love You Because - Leon Payne
TTITLE12=Live Fast, Love Hard. Die Young - Faron Young
TTITLE13=I Forgot More Than You'll Ever Know - The Davis Sisters
TTITLE14=Young Love - Sonny James
TTITLE15=I Don't Believe You Met My Baby - The Louvin Brothers
TTITLE16=Slowly - Webb Pierce
TTITLE17=If You've Got The Money, I've Got The Time - Lefty Frizzell
TTITLE18=Crazy Arms - Ray Price
TTITLE19=Four Walls - Jim Reeves
EXTD=
EXTT0=
EXTT1=
EXTT2=
EXTT3=
EXTT4=
EXTT5=
EXTT6=
EXTT7=
EXTT8=
EXTT9=
EXTT10=
EXTT11=
EXTT12=
EXTT13=
EXTT14=
EXTT15=
EXTT16=
EXTT17=
EXTT18=
EXTT19=
PLAYORDER=
